<svg width="14" height="14" viewBox="0 0 14 14" fill="none" xmlns="http://www.w3.org/2000/svg">
<path d="M2.45579 2.55909L2.50421 2.50426C2.60466 2.40382 2.7383 2.34349 2.88006 2.33457C3.02183 2.32566 3.16197 2.36878 3.27421 2.45584L3.32904 2.50426L6.99996 6.17459L10.6709 2.50426C10.7247 2.44854 10.7891 2.4041 10.8602 2.37353C10.9314 2.34296 11.0079 2.32687 11.0854 2.32619C11.1628 2.32552 11.2397 2.34028 11.3113 2.36961C11.383 2.39894 11.4482 2.44226 11.5029 2.49703C11.5577 2.5518 11.601 2.61693 11.6304 2.68862C11.6597 2.76031 11.6744 2.83712 11.6738 2.91457C11.6731 2.99203 11.657 3.06857 11.6264 3.13974C11.5959 3.21091 11.5514 3.27528 11.4957 3.32909L7.82538 7.00001L11.4957 10.6709C11.5961 10.7714 11.6565 10.905 11.6654 11.0468C11.6743 11.1885 11.6312 11.3287 11.5441 11.4409L11.4957 11.4958C11.3953 11.5962 11.2616 11.6565 11.1199 11.6654C10.9781 11.6744 10.8379 11.6312 10.7257 11.5442L10.6709 11.4958L6.99996 7.82542L3.32904 11.4958C3.21902 11.602 3.07167 11.6608 2.91873 11.6595C2.76578 11.6582 2.61947 11.5968 2.51132 11.4887C2.40316 11.3805 2.34181 11.2342 2.34048 11.0812C2.33915 10.9283 2.39795 10.7809 2.50421 10.6709L6.17454 7.00001L2.50421 3.32909C2.40377 3.22864 2.34344 3.095 2.33452 2.95324C2.32561 2.81147 2.36873 2.67133 2.45579 2.55909Z" fill="#A3A3A5"/>
</svg>
