<svg width="42" height="42" viewBox="0 0 42 42" fill="none" xmlns="http://www.w3.org/2000/svg">
<circle cx="21" cy="21" r="21" fill="black" fill-opacity="0.4"/>
<path fill-rule="evenodd" clip-rule="evenodd" d="M15.375 15.75C15.375 15.1287 15.8787 14.625 16.5 14.625H30C30.6213 14.625 31.125 15.1287 31.125 15.75C31.125 16.3713 30.6213 16.875 30 16.875H16.5C15.8787 16.875 15.375 16.3713 15.375 15.75ZM15.375 21C15.375 20.3787 15.8787 19.875 16.5 19.875H30C30.6213 19.875 31.125 20.3787 31.125 21C31.125 21.6213 30.6213 22.125 30 22.125H16.5C15.8787 22.125 15.375 21.6213 15.375 21ZM15.375 26.25C15.375 25.6287 15.8787 25.125 16.5 25.125H30C30.6213 25.125 31.125 25.6287 31.125 26.25C31.125 26.8713 30.6213 27.375 30 27.375H16.5C15.8787 27.375 15.375 26.8713 15.375 26.25Z" fill="white"/>
<path fill-rule="evenodd" clip-rule="evenodd" d="M11.25 15.75C11.25 14.9216 11.9216 14.25 12.75 14.25C13.5784 14.25 14.25 14.9216 14.25 15.75C14.25 16.5784 13.5784 17.25 12.75 17.25C11.9216 17.25 11.25 16.5784 11.25 15.75Z" fill="white"/>
<path fill-rule="evenodd" clip-rule="evenodd" d="M11.25 21C11.25 20.1716 11.9216 19.5 12.75 19.5C13.5784 19.5 14.25 20.1716 14.25 21C14.25 21.8284 13.5784 22.5 12.75 22.5C11.9216 22.5 11.25 21.8284 11.25 21Z" fill="white"/>
<path fill-rule="evenodd" clip-rule="evenodd" d="M11.25 26.25C11.25 25.4216 11.9216 24.75 12.75 24.75C13.5784 24.75 14.25 25.4216 14.25 26.25C14.25 27.0784 13.5784 27.75 12.75 27.75C11.9216 27.75 11.25 27.0784 11.25 26.25Z" fill="white"/>
</svg>
