<svg width="32" height="32" viewBox="0 0 32 32" fill="none" xmlns="http://www.w3.org/2000/svg">
<path d="M7.33762 6.16941L7.33362 9.00008V23.0054C7.33362 24.1547 7.79016 25.2569 8.60282 26.0695C9.41548 26.8822 10.5177 27.3387 11.667 27.3387H23.1549C22.9479 27.9237 22.5647 28.4301 22.058 28.7883C21.5513 29.1464 20.9461 29.3387 20.3256 29.3387H11.667C9.98725 29.3387 8.37634 28.6715 7.18861 27.4838C6.00088 26.296 5.33362 24.6851 5.33362 23.0054V9.00008C5.33362 7.69341 6.16962 6.58008 7.33762 6.16941ZM23.667 2.66675C24.0609 2.66675 24.451 2.74435 24.815 2.89511C25.179 3.04587 25.5097 3.26685 25.7883 3.54543C26.0668 3.824 26.2878 4.15472 26.4386 4.5187C26.5894 4.88267 26.667 5.27278 26.667 5.66675V23.0001C26.667 23.394 26.5894 23.7842 26.4386 24.1481C26.2878 24.5121 26.0668 24.8428 25.7883 25.1214C25.5097 25.4 25.179 25.621 24.815 25.7717C24.451 25.9225 24.0609 26.0001 23.667 26.0001H11.667C10.8713 26.0001 10.1082 25.684 9.54563 25.1214C8.98302 24.5588 8.66695 23.7957 8.66695 23.0001V5.66675C8.66695 4.8711 8.98302 4.10804 9.54563 3.54543C10.1082 2.98282 10.8713 2.66675 11.667 2.66675H23.667ZM23.667 4.66675H11.667C11.4017 4.66675 11.1474 4.7721 10.9598 4.95964C10.7723 5.14718 10.667 5.40153 10.667 5.66675V23.0001C10.667 23.5521 11.115 24.0001 11.667 24.0001H23.667C23.9322 24.0001 24.1865 23.8947 24.3741 23.7072C24.5616 23.5197 24.667 23.2653 24.667 23.0001V5.66675C24.667 5.40153 24.5616 5.14718 24.3741 4.95964C24.1865 4.7721 23.9322 4.66675 23.667 4.66675Z" fill="white"/>
</svg>
