<svg width="14" height="14" viewBox="0 0 14 14" fill="none" xmlns="http://www.w3.org/2000/svg">
<path d="M3.64555 2.77067C3.41348 2.77067 3.19092 2.86286 3.02683 3.02695C2.86274 3.19105 2.77055 3.41361 2.77055 3.64567V10.354C2.77055 10.5861 2.86274 10.8086 3.02683 10.9727C3.19092 11.1368 3.41348 11.229 3.64555 11.229H10.3539C10.5859 11.229 10.8085 11.1368 10.9726 10.9727C11.1367 10.8086 11.2289 10.5861 11.2289 10.354V8.02067C11.2289 7.86596 11.2903 7.71759 11.3997 7.60819C11.5091 7.4988 11.6575 7.43734 11.8122 7.43734C11.9669 7.43734 12.1153 7.4988 12.2247 7.60819C12.3341 7.71759 12.3955 7.86596 12.3955 8.02067V10.354C12.3955 10.8955 12.1804 11.4148 11.7976 11.7977C11.4147 12.1806 10.8954 12.3957 10.3539 12.3957H3.64555C3.10406 12.3957 2.58476 12.1806 2.20187 11.7977C1.81899 11.4148 1.60388 10.8955 1.60388 10.354V3.64567C1.60388 3.10419 1.81899 2.58488 2.20187 2.20199C2.58476 1.81911 3.10406 1.604 3.64555 1.604H5.97888C6.13359 1.604 6.28196 1.66546 6.39136 1.77486C6.50076 1.88425 6.56222 2.03263 6.56222 2.18734C6.56222 2.34205 6.50076 2.49042 6.39136 2.59982C6.28196 2.70921 6.13359 2.77067 5.97888 2.77067H3.64555ZM7.43721 2.18734C7.43721 2.03263 7.49867 1.88425 7.60807 1.77486C7.71747 1.66546 7.86584 1.604 8.02055 1.604H11.8122C11.9669 1.604 12.1153 1.66546 12.2247 1.77486C12.3341 1.88425 12.3955 2.03263 12.3955 2.18734V5.979C12.3955 6.13371 12.3341 6.28209 12.2247 6.39148C12.1153 6.50088 11.9669 6.56234 11.8122 6.56234C11.6575 6.56234 11.5091 6.50088 11.3997 6.39148C11.2903 6.28209 11.2289 6.13371 11.2289 5.979V3.5955L8.43296 6.39142C8.37915 6.44713 8.31479 6.49157 8.24362 6.52215C8.17245 6.55272 8.0959 6.56881 8.01845 6.56948C7.94099 6.57016 7.86418 6.5554 7.79249 6.52607C7.7208 6.49674 7.65567 6.45342 7.6009 6.39865C7.54613 6.34388 7.50282 6.27875 7.47349 6.20706C7.44416 6.13537 7.4294 6.05856 7.43007 5.9811C7.43074 5.90365 7.44683 5.8271 7.47741 5.75593C7.50798 5.68477 7.55242 5.6204 7.60813 5.56659L10.404 2.77067H8.02055C7.86584 2.77067 7.71747 2.70921 7.60807 2.59982C7.49867 2.49042 7.43721 2.34205 7.43721 2.18734Z" fill="white"/>
</svg>
