<svg width="26" height="26" viewBox="0 0 26 26" fill="none" xmlns="http://www.w3.org/2000/svg">
<path d="M11.4292 2.74407C11.8687 2.3736 12.4251 2.17041 13 2.17041C13.5749 2.17041 14.1313 2.3736 14.5708 2.74407L21.8833 8.91366C22.4337 9.37624 22.75 10.0577 22.75 10.777V21.3958C22.75 21.8986 22.5503 22.3808 22.1947 22.7364C21.8392 23.0919 21.357 23.2917 20.8542 23.2917H17.6042C17.1014 23.2917 16.6191 23.0919 16.2636 22.7364C15.9081 22.3808 15.7083 21.8986 15.7083 21.3958V15.9792C15.7083 15.7637 15.6227 15.557 15.4704 15.4046C15.318 15.2523 15.1113 15.1667 14.8958 15.1667H11.1042C10.8887 15.1667 10.682 15.2523 10.5296 15.4046C10.3773 15.557 10.2917 15.7637 10.2917 15.9792V21.3958C10.2917 21.8986 10.0919 22.3808 9.73639 22.7364C9.38085 23.0919 8.89864 23.2917 8.39583 23.2917H5.14583C4.89687 23.2917 4.65034 23.2426 4.42033 23.1473C4.19032 23.0521 3.98132 22.9124 3.80528 22.7364C3.62923 22.5603 3.48959 22.3513 3.39431 22.1213C3.29904 21.8913 3.25 21.6448 3.25 21.3958V10.7759C3.25 10.0577 3.56633 9.37624 4.11667 8.91257L11.4292 2.74407Z" fill="white"/>
</svg>
