<svg width="26" height="26" viewBox="0 0 26 26" fill="none" xmlns="http://www.w3.org/2000/svg">
<path d="M2.16663 7.31258C2.16663 6.26608 3.01596 5.41675 4.06246 5.41675H18.6875C19.734 5.41675 20.5833 6.26608 20.5833 7.31258V16.5209C20.5833 17.0237 20.3836 17.5059 20.028 17.8615C19.6725 18.217 19.1903 18.4167 18.6875 18.4167H4.06246C3.55965 18.4167 3.07744 18.217 2.7219 17.8615C2.36637 17.5059 2.16663 17.0237 2.16663 16.5209V7.31258ZM5.41663 6.77091V7.85425C5.41663 8.06974 5.33102 8.2764 5.17865 8.42877C5.02628 8.58115 4.81961 8.66675 4.60413 8.66675H3.52079V10.2917H4.60413C4.92422 10.2917 5.24119 10.2287 5.53692 10.1062C5.83265 9.98371 6.10136 9.80416 6.3277 9.57782C6.55404 9.35148 6.73359 9.08277 6.85608 8.78704C6.97858 8.49131 7.04163 8.17435 7.04163 7.85425V6.77091H5.41663ZM11.375 14.6251C12.0214 14.6251 12.6414 14.3683 13.0985 13.9112C13.5557 13.454 13.8125 12.834 13.8125 12.1876C13.8125 11.5411 13.5557 10.9211 13.0985 10.464C12.6414 10.0069 12.0214 9.75008 11.375 9.75008C10.7285 9.75008 10.1085 10.0069 9.65139 10.464C9.19427 10.9211 8.93746 11.5411 8.93746 12.1876C8.93746 12.834 9.19427 13.454 9.65139 13.9112C10.1085 14.3683 10.7285 14.6251 11.375 14.6251ZM3.52079 15.1667H4.60413C4.81961 15.1667 5.02628 15.2524 5.17865 15.4047C5.33102 15.5571 5.41663 15.7638 5.41663 15.9792V17.0626H7.04163V15.9792C7.04163 15.3328 6.78482 14.7128 6.3277 14.2557C5.87058 13.7986 5.25059 13.5417 4.60413 13.5417H3.52079V15.1667ZM17.3333 15.9792C17.3333 15.7638 17.4189 15.5571 17.5713 15.4047C17.7236 15.2524 17.9303 15.1667 18.1458 15.1667H19.2291V13.5417H18.1458C17.4993 13.5417 16.8793 13.7986 16.4222 14.2557C15.9651 14.7128 15.7083 15.3328 15.7083 15.9792V17.0626H17.3333V15.9792ZM17.3333 7.85425V6.77091H15.7083V7.85425C15.7083 8.17435 15.7713 8.49131 15.8938 8.78704C16.0163 9.08277 16.1959 9.35148 16.4222 9.57782C16.8793 10.0349 17.4993 10.2917 18.1458 10.2917H19.2291V8.66675H18.1458C17.9303 8.66675 17.7236 8.58115 17.5713 8.42877C17.4189 8.2764 17.3333 8.06974 17.3333 7.85425Z" fill="white"/>
<path d="M4.76758 20.0417C5.05283 20.536 5.46324 20.9465 5.95751 21.2317C6.45178 21.517 7.01248 21.667 7.58316 21.6667H18.6873C19.3631 21.6667 20.0322 21.5336 20.6566 21.275C21.2809 21.0164 21.8481 20.6374 22.326 20.1596C22.8038 19.6817 23.1829 19.1145 23.4415 18.4901C23.7001 17.8658 23.8332 17.1967 23.8332 16.5209V10.8334C23.8332 9.63091 23.1799 8.58007 22.2082 8.01782V16.5209C22.2082 17.4547 21.8372 18.3502 21.1769 19.0105C20.5167 19.6708 19.6211 20.0417 18.6873 20.0417H4.76758Z" fill="white"/>
</svg>
