<svg width="26" height="26" viewBox="0 0 26 26" fill="none" xmlns="http://www.w3.org/2000/svg">
<path d="M10.2916 8.66675C11.3381 8.66675 12.1875 9.51608 12.1875 10.5626V15.4376C12.1875 15.9404 11.9877 16.4226 11.6322 16.7781C11.2766 17.1337 10.7944 17.3334 10.2916 17.3334H4.06246C3.55965 17.3334 3.07744 17.1337 2.7219 16.7781C2.36637 16.4226 2.16663 15.9404 2.16663 15.4376V10.5626C2.16664 10.0868 2.34556 9.6284 2.66786 9.27841C2.99016 8.92841 3.43228 8.7124 3.90646 8.67325L4.06246 8.66675H10.2916ZM21.9375 8.66675C22.984 8.66675 23.8333 9.51608 23.8333 10.5626V15.4376C23.8333 15.9404 23.6336 16.4226 23.278 16.7781C22.9225 17.1337 22.4403 17.3334 21.9375 17.3334H15.7083C15.2055 17.3334 14.7233 17.1337 14.3677 16.7781C14.0122 16.4226 13.8125 15.9404 13.8125 15.4376V10.5626C13.8125 9.51608 14.6618 8.66675 15.7083 8.66675H21.9375Z" fill="white"/>
</svg>
