<svg width="26" height="26" viewBox="0 0 26 26" fill="none" xmlns="http://www.w3.org/2000/svg">
<path d="M16.4742 2.48292L20.8076 6.81083C20.9943 6.99724 21.1065 7.24536 21.1233 7.50864C21.14 7.77192 21.0601 8.03227 20.8986 8.24083L20.8087 8.34267L16.4753 12.6825C16.2808 12.8789 16.0186 12.9935 15.7424 13.0028C15.4662 13.0122 15.1968 12.9156 14.9895 12.7329C14.7821 12.5502 14.6524 12.2951 14.6269 12.0199C14.6015 11.7447 14.6822 11.4702 14.8525 11.2525L14.9424 11.1507L17.4232 8.66658H5.95833C5.6928 8.66681 5.43643 8.56952 5.23792 8.39317C5.0394 8.21682 4.91257 7.97371 4.8815 7.71L4.875 7.58325C4.87504 7.31791 4.97245 7.0618 5.14877 6.86351C5.3251 6.66523 5.56806 6.53854 5.83158 6.5075L5.95833 6.49992H17.4308L14.9435 4.01583C14.7568 3.82943 14.6446 3.58131 14.6278 3.31803C14.6111 3.05475 14.6909 2.7944 14.8525 2.58583L14.9424 2.48292C15.1288 2.29623 15.3769 2.18398 15.6402 2.16723C15.9035 2.15047 16.1639 2.23037 16.3724 2.39192L16.4742 2.48292ZM21.1142 18.2898L21.1217 18.4166C21.1217 18.6819 21.0243 18.938 20.848 19.1363C20.6717 19.3346 20.4287 19.4613 20.1652 19.4923L20.0384 19.4999H8.57242L11.0576 21.984C11.2443 22.1704 11.3565 22.4185 11.3733 22.6818C11.39 22.9451 11.3101 23.2054 11.1486 23.414L11.0587 23.5158C10.8723 23.7025 10.6241 23.8148 10.3609 23.8315C10.0976 23.8483 9.83723 23.7684 9.62867 23.6068L9.52575 23.5158L5.19242 19.1868C5.00589 19.0003 4.89384 18.7521 4.87729 18.4888C4.86073 18.2255 4.94081 17.9653 5.1025 17.7568L5.19242 17.655L9.52575 13.3173C9.72025 13.121 9.98245 13.0064 10.2587 12.997C10.5349 12.9876 10.8043 13.0842 11.0116 13.2669C11.219 13.4496 11.3487 13.7047 11.3741 13.9799C11.3996 14.2551 11.3189 14.5297 11.1486 14.7473L11.0587 14.8492L8.57783 17.3332H20.0384C20.3038 17.3333 20.5599 17.4307 20.7582 17.607C20.9564 17.7833 21.0831 18.0263 21.1142 18.2898Z" fill="white"/>
</svg>
