<svg width="24" height="24" viewBox="0 0 24 24" fill="none" xmlns="http://www.w3.org/2000/svg">
<path d="M8 6H6V8H8V6Z" fill="#A3A3A5"/>
<path d="M3 5.5C3 4.83696 3.26339 4.20107 3.73223 3.73223C4.20107 3.26339 4.83696 3 5.5 3H8.5C9.16304 3 9.79893 3.26339 10.2678 3.73223C10.7366 4.20107 11 4.83696 11 5.5V8.5C11 9.16304 10.7366 9.79893 10.2678 10.2678C9.79893 10.7366 9.16304 11 8.5 11H5.5C4.83696 11 4.20107 10.7366 3.73223 10.2678C3.26339 9.79893 3 9.16304 3 8.5V5.5ZM5.5 5C5.36739 5 5.24021 5.05268 5.14645 5.14645C5.05268 5.24021 5 5.36739 5 5.5V8.5C5 8.63261 5.05268 8.75979 5.14645 8.85355C5.24021 8.94732 5.36739 9 5.5 9H8.5C8.63261 9 8.75979 8.94732 8.85355 8.85355C8.94732 8.75979 9 8.63261 9 8.5V5.5C9 5.36739 8.94732 5.24021 8.85355 5.14645C8.75979 5.05268 8.63261 5 8.5 5H5.5ZM6 16H8V18H6V16Z" fill="#A3A3A5"/>
<path d="M3 15.5C3 14.837 3.26339 14.2011 3.73223 13.7322C4.20107 13.2634 4.83696 13 5.5 13H8.5C9.16304 13 9.79893 13.2634 10.2678 13.7322C10.7366 14.2011 11 14.837 11 15.5V18.5C11 19.163 10.7366 19.7989 10.2678 20.2678C9.79893 20.7366 9.16304 21 8.5 21H5.5C4.83696 21 4.20107 20.7366 3.73223 20.2678C3.26339 19.7989 3 19.163 3 18.5V15.5ZM5.5 15C5.36739 15 5.24021 15.0527 5.14645 15.1464C5.05268 15.2402 5 15.3674 5 15.5V18.5C5 18.6326 5.05268 18.7598 5.14645 18.8536C5.24021 18.9473 5.36739 19 5.5 19H8.5C8.63261 19 8.75979 18.9473 8.85355 18.8536C8.94732 18.7598 9 18.6326 9 18.5V15.5C9 15.3674 8.94732 15.2402 8.85355 15.1464C8.75979 15.0527 8.63261 15 8.5 15H5.5ZM18 6H16V8H18V6Z" fill="#A3A3A5"/>
<path d="M15.5 3C14.837 3 14.2011 3.26339 13.7322 3.73223C13.2634 4.20107 13 4.83696 13 5.5V8.5C13 9.16304 13.2634 9.79893 13.7322 10.2678C14.2011 10.7366 14.837 11 15.5 11H18.5C19.163 11 19.7989 10.7366 20.2678 10.2678C20.7366 9.79893 21 9.16304 21 8.5V5.5C21 4.83696 20.7366 4.20107 20.2678 3.73223C19.7989 3.26339 19.163 3 18.5 3H15.5ZM15 5.5C15 5.36739 15.0527 5.24021 15.1464 5.14645C15.2402 5.05268 15.3674 5 15.5 5H18.5C18.6326 5 18.7598 5.05268 18.8536 5.14645C18.9473 5.24021 19 5.36739 19 5.5V8.5C19 8.63261 18.9473 8.75979 18.8536 8.85355C18.7598 8.94732 18.6326 9 18.5 9H15.5C15.3674 9 15.2402 8.94732 15.1464 8.85355C15.0527 8.75979 15 8.63261 15 8.5V5.5ZM13 13H15.75V15.75H13V13ZM18.25 15.75H15.75V18.25H13V21H15.75V18.25H18.25V21H21V18.25H18.25V15.75ZM18.25 15.75V13H21V15.75H18.25Z" fill="#A3A3A5"/>
</svg>
