<svg width="24" height="24" viewBox="0 0 24 24" fill="none" xmlns="http://www.w3.org/2000/svg">
<path d="M11.9996 14.7727C13.5301 14.7727 14.7708 13.5321 14.7708 12.0016C14.7708 10.4711 13.5301 9.23047 11.9996 9.23047C10.4692 9.23047 9.22852 10.4711 9.22852 12.0016C9.22852 13.5321 10.4692 14.7727 11.9996 14.7727Z" fill="#A3A3A5"/>
<path d="M20.7239 11.2339C18.5938 8.65987 15.3694 6.18213 12 6.18213C8.62999 6.18213 5.40484 8.6616 3.27616 11.2339C2.90795 11.6787 2.90795 12.3244 3.27616 12.7691C3.81134 13.4158 4.9333 14.6642 6.43179 15.755C10.2057 18.5023 13.7861 18.5084 17.5683 15.755C19.0668 14.6642 20.1887 13.4158 20.7239 12.7691C21.0911 12.3252 21.093 11.6801 20.7239 11.2339V11.2339ZM12 8.12192C14.1394 8.12192 15.8796 9.8622 15.8796 12.0015C15.8796 14.1408 14.1394 15.8811 12 15.8811C9.86072 15.8811 8.12045 14.1408 8.12045 12.0015C8.12045 9.8622 9.86072 8.12192 12 8.12192Z" fill="#A3A3A5"/>
</svg>
