<svg width="32" height="32" viewBox="0 0 32 32" fill="none" xmlns="http://www.w3.org/2000/svg">
<path d="M25.328 14.6666C25.6546 14.6666 25.9698 14.7865 26.2139 15.0035C26.4579 15.2205 26.6138 15.5196 26.652 15.8439L26.6614 15.9999V23.9999C26.6614 25.3682 26.1355 26.6842 25.1924 27.6757C24.2494 28.6671 22.9613 29.2582 21.5947 29.3266L21.328 29.3333H10.6667C9.29838 29.3333 7.9824 28.8073 6.99096 27.8643C5.99951 26.9212 5.40846 25.6332 5.34004 24.2666L5.33337 23.9999V15.9999C5.33375 15.6601 5.46388 15.3332 5.69717 15.0861C5.93046 14.839 6.24931 14.6903 6.58857 14.6704C6.92782 14.6504 7.26188 14.7608 7.52248 14.9789C7.78309 15.1971 7.95057 15.5065 7.99071 15.8439L8.00004 15.9999V23.9999C8.00016 24.6725 8.2544 25.3201 8.71182 25.8131C9.16924 26.3062 9.79606 26.6081 10.4667 26.6586L10.6667 26.6666H21.328C22.0006 26.6665 22.6482 26.4122 23.1413 25.9548C23.6343 25.4974 23.9363 24.8706 23.9867 24.1999L23.9947 23.9999V15.9999C23.9947 15.6463 24.1352 15.3072 24.3852 15.0571C24.6353 14.8071 24.9744 14.6666 25.328 14.6666ZM8.38537 9.71991L15.048 3.05725C15.2775 2.82748 15.5828 2.68933 15.9069 2.66871C16.2309 2.64809 16.5513 2.74642 16.808 2.94525L16.9334 3.05592L23.604 9.71858C23.8436 9.9583 23.9829 10.2803 23.9936 10.619C24.0043 10.9578 23.8856 11.2879 23.6617 11.5422C23.4377 11.7966 23.1253 11.9561 22.7879 11.9884C22.4505 12.0207 22.1135 11.9232 21.8454 11.7159L21.72 11.6052L17.328 7.21992V20.3399C17.328 20.6665 17.2081 20.9817 16.9911 21.2257C16.7741 21.4698 16.475 21.6257 16.1507 21.6639L15.9947 21.6732C15.6681 21.6732 15.3529 21.5533 15.1089 21.3363C14.8648 21.1193 14.7089 20.8202 14.6707 20.4959L14.6614 20.3399V7.21325L10.2707 11.6052C10.0411 11.8348 9.73565 11.9727 9.41162 11.9931C9.08758 12.0135 8.76725 11.9149 8.51071 11.7159L8.38537 11.6052C8.15581 11.3757 8.0179 11.0702 7.99752 10.7462C7.97715 10.4221 8.07571 10.1018 8.27471 9.84525L8.38537 9.71991L15.048 3.05725L8.38671 9.71858L8.38537 9.71991Z" fill="white"/>
</svg>
