<svg width="122" height="135" viewBox="0 0 122 135" fill="none" xmlns="http://www.w3.org/2000/svg">
<path d="M60.5334 44.8823H0C6.20899 33.9696 17.4607 26.8815 29.9847 25.9932L31.1702 25.9092L33.1831 26.0519C45.044 26.8931 55.5151 34.1024 60.5334 44.8823Z" fill="#545454"/>
<path d="M121.368 44.8823H60.8345C67.0435 33.9696 78.2952 26.8815 90.8192 25.9932L92.0047 25.9092L94.0176 26.0519C105.879 26.8931 116.35 34.1024 121.368 44.8823Z" fill="#545454"/>
<path d="M60.2709 44.7848L17.4674 1.98125C29.5743 -1.34483 42.5424 1.59928 52.0263 9.82702L52.9241 10.6058L54.2464 12.1301C62.0386 21.1119 64.3451 33.6138 60.2709 44.7848Z" fill="#545454"/>
<path d="M103.287 87.8013L60.4839 44.9978C72.5908 41.6717 85.559 44.6158 95.0429 52.8435L95.9406 53.6224L97.263 55.1466C105.055 64.1284 107.362 76.6303 103.287 87.8013Z" fill="#545454"/>
<path d="M61.6405 44.9977L18.837 87.8013C15.5109 75.6944 18.455 62.7262 26.6827 53.2423L27.4615 52.3446L28.9858 51.0222C37.9676 43.2301 50.4695 40.9236 61.6405 44.9977Z" fill="#545454"/>
<path d="M104.657 1.9812L61.8535 44.7848C58.5274 32.6778 61.4715 19.7097 69.6992 10.2258L70.4781 9.32807L72.0023 8.00569C80.9841 0.213552 93.486 -2.09293 104.657 1.9812Z" fill="#545454"/>
<path d="M62.6415 42.473C62.6415 43.97 61.8325 45.1835 60.8345 45.1835C59.8366 45.1835 59.0276 43.97 59.0276 42.473C59.0276 40.9761 59.8366 39.7626 60.8345 39.7626C61.8325 39.7626 62.6415 40.9761 62.6415 42.473Z" fill="#545454"/>
<path d="M60.8346 64.4482L70.6945 89.2111C73.4693 96.18 68.3356 103.75 60.8346 103.75C53.3336 103.75 48.1999 96.18 50.9747 89.2111L60.8346 64.4482Z" fill="#545454"/>
<path d="M42.4745 124.17V122.161H37.3128C34.6447 122.161 32.4819 124.349 32.4819 127.049V132.306H37.7846C39.827 132.306 41.6326 130.963 42.2429 128.991H44.7907C44.0562 132.355 41.1095 134.75 37.7049 134.75H29.9341V127.317C29.9341 123.175 33.2524 119.817 37.3458 119.817H44.9561V124.17H42.4745Z" fill="#545454"/>
<path fill-rule="evenodd" clip-rule="evenodd" d="M60.9708 128.958C60.9708 132.157 58.408 134.75 55.2466 134.75H45.8826V127.283C45.8826 123.123 49.2158 119.75 53.3275 119.75H60.9708V128.958ZM53.2613 122.094C50.575 122.094 48.3973 124.297 48.3973 127.016V132.306H55.1473C56.9747 132.306 58.4561 130.807 58.4561 128.958V122.094H53.2613Z" fill="#545454"/>
<path d="M74.4378 124.17V122.161H69.276C66.608 122.161 64.4451 124.349 64.4451 127.049V132.306H69.7478C71.7902 132.306 73.5958 130.963 74.2061 128.991H76.7539C76.0195 132.355 73.0727 134.75 69.6682 134.75H61.8973V127.317C61.8973 123.175 65.2157 119.817 69.3091 119.817H76.9194V124.17H74.4378Z" fill="#545454"/>
<path fill-rule="evenodd" clip-rule="evenodd" d="M92.9341 128.958C92.9341 132.157 90.3712 134.75 87.2098 134.75H77.8458V127.283C77.8458 123.123 81.179 119.75 85.2907 119.75H92.9341V128.958ZM85.2245 122.094C82.5382 122.094 80.3606 124.297 80.3606 127.016V132.306H87.1106C88.938 132.306 90.4194 130.807 90.4194 128.958V122.094H85.2245Z" fill="#545454"/>
</svg>
